<svg xmlns="http://www.w3.org/2000/svg" viewBox="0 0 80 80" fill="none">
  <defs>
    <linearGradient id="etie" x1="0" y1="80" x2="80" y2="0" gradientUnits="userSpaceOnUse">
      <stop stop-color="#8b5cf6"/>
      <stop offset="1" stop-color="#ec4899"/>
    </linearGradient>
  </defs>
  <!-- Globe circle -->
  <circle cx="40" cy="40" r="26" fill="url(#etie)" opacity=".18" stroke="url(#etie)" stroke-width="1.5"/>
  <!-- Latitude / longitude lines -->
  <ellipse cx="40" cy="40" rx="26" ry="10" fill="none" stroke="url(#etie)" stroke-width="1.2" opacity=".55"/>
  <path d="M40 14 V66" stroke="url(#etie)" stroke-width="1.2" opacity=".55"/>
  <!-- Loaded wave (filled segments — Nordic seed already present) -->
  <path d="M40 14 a26 26 0 0 1 18.4 7.6 l-5 5 A19 19 0 0 0 40 21 Z" fill="url(#etie)" opacity=".75"/>
  <!-- New wave coming in (incremental arrow + pin) -->
  <path d="M66 40 L70 40 L68 36 M66 40 L70 40 L68 44" stroke="url(#etie)" stroke-width="2" stroke-linecap="round" stroke-linejoin="round"/>
  <!-- Pin at target (Baltic region in the east) -->
  <path d="M56 34 a4 4 0 1 1 -8 0 a4 4 0 0 1 8 0 Z M52 38 L52 44" stroke="url(#etie)" stroke-width="1.8" fill="url(#etie)" fill-opacity=".4" stroke-linecap="round" stroke-linejoin="round"/>
</svg>
