<svg xmlns="http://www.w3.org/2000/svg" viewBox="0 0 80 80" fill="none">
  <defs>
    <linearGradient id="cb" x1="0" y1="80" x2="80" y2="0" gradientUnits="userSpaceOnUse">
      <stop stop-color="#10b981"/>
      <stop offset="1" stop-color="#0ea5e9"/>
    </linearGradient>
  </defs>
  <!-- Shield outline -->
  <path d="M40 8L14 20V42C14 56 25 67 40 72C55 67 66 56 66 42V20L40 8Z" stroke="url(#cb)" stroke-width="2" fill="url(#cb)" fill-opacity=".1"/>
  <!-- Shield center line -->
  <line x1="40" y1="8" x2="40" y2="72" stroke="url(#cb)" stroke-width="1" opacity=".2"/>
  <!-- Container/cargo box -->
  <rect x="28" y="32" width="24" height="16" rx="1.5" stroke="url(#cb)" stroke-width="1.5" fill="url(#cb)" fill-opacity=".15"/>
  <line x1="40" y1="32" x2="40" y2="48" stroke="url(#cb)" stroke-width="1" opacity=".4"/>
  <line x1="28" y1="38" x2="52" y2="38" stroke="url(#cb)" stroke-width="1" opacity=".3"/>
  <!-- Checkmark on shield -->
  <path d="M34 55L38 59L46 51" stroke="url(#cb)" stroke-width="2.5" stroke-linecap="round" stroke-linejoin="round" fill="none" opacity=".8"/>
  <!-- Scan lines (border inspection) -->
  <line x1="20" y1="24" x2="60" y2="24" stroke="url(#cb)" stroke-width="1" opacity=".25" stroke-dasharray="3 2"/>
  <line x1="18" y1="28" x2="62" y2="28" stroke="url(#cb)" stroke-width="1" opacity=".15" stroke-dasharray="3 2"/>
  <!-- Document icon (top-left) -->
  <rect x="8" y="10" width="8" height="10" rx="1" fill="url(#cb)" opacity=".35"/>
  <line x1="10" y1="13" x2="14" y2="13" stroke="url(#cb)" stroke-width=".6" opacity=".6"/>
  <line x1="10" y1="15.5" x2="14" y2="15.5" stroke="url(#cb)" stroke-width=".6" opacity=".6"/>
  <!-- Document icon (top-right) -->
  <rect x="64" y="10" width="8" height="10" rx="1" fill="url(#cb)" opacity=".35"/>
  <line x1="66" y1="13" x2="70" y2="13" stroke="url(#cb)" stroke-width=".6" opacity=".6"/>
  <line x1="66" y1="15.5" x2="70" y2="15.5" stroke="url(#cb)" stroke-width=".6" opacity=".6"/>
</svg>
