<svg xmlns="http://www.w3.org/2000/svg" viewBox="0 0 80 80" fill="none">
  <defs>
    <linearGradient id="tr" x1="0" y1="0" x2="80" y2="80" gradientUnits="userSpaceOnUse">
      <stop stop-color="#ec4899"/>
      <stop offset="1" stop-color="#f43f5e"/>
    </linearGradient>
  </defs>
  <!-- Shopping bag body -->
  <path d="M18 30L14 70C14 72.2 15.8 74 18 74H62C64.2 74 66 72.2 66 70L62 30H18Z" fill="url(#tr)" opacity=".15"/>
  <path d="M18 30L14 70C14 72.2 15.8 74 18 74H62C64.2 74 66 72.2 66 70L62 30H18Z" stroke="url(#tr)" stroke-width="1.5" fill="none"/>
  <!-- Bag handles -->
  <path d="M30 30V20C30 14.5 34.5 10 40 10C45.5 10 50 14.5 50 20V30" stroke="url(#tr)" stroke-width="2" fill="none" stroke-linecap="round"/>
  <!-- British pound symbol -->
  <text x="40" y="56" font-family="Georgia,serif" font-size="22" font-weight="bold" fill="url(#tr)" text-anchor="middle" opacity=".85">&pound;</text>
  <!-- Document lines (EDI data) -->
  <line x1="24" y1="62" x2="36" y2="62" stroke="url(#tr)" stroke-width="1.2" opacity=".5" stroke-linecap="round"/>
  <line x1="24" y1="66" x2="42" y2="66" stroke="url(#tr)" stroke-width="1.2" opacity=".5" stroke-linecap="round"/>
  <line x1="44" y1="62" x2="56" y2="62" stroke="url(#tr)" stroke-width="1.2" opacity=".5" stroke-linecap="round"/>
  <!-- Small transmission arrows (EDI exchange) -->
  <path d="M6 40L12 40M10 37L12 40L10 43" stroke="url(#tr)" stroke-width="1.5" fill="none" stroke-linecap="round" opacity=".45"/>
  <path d="M74 40L68 40M70 37L68 40L70 43" stroke="url(#tr)" stroke-width="1.5" fill="none" stroke-linecap="round" opacity=".45"/>
</svg>
