<svg xmlns="http://www.w3.org/2000/svg" viewBox="0 0 80 80" fill="none">
  <defs>
    <linearGradient id="gh" x1="0" y1="0" x2="80" y2="80" gradientUnits="userSpaceOnUse">
      <stop stop-color="#8b5cf6"/>
      <stop offset="1" stop-color="#06b6d4"/>
    </linearGradient>
  </defs>
  <!-- Edges -->
  <line x1="20" y1="22" x2="60" y2="22" stroke="url(#gh)" stroke-width="1.5" opacity=".4"/>
  <line x1="20" y1="22" x2="20" y2="58" stroke="url(#gh)" stroke-width="1.5" opacity=".4"/>
  <line x1="60" y1="22" x2="60" y2="58" stroke="url(#gh)" stroke-width="1.5" opacity=".4"/>
  <line x1="20" y1="58" x2="40" y2="72" stroke="url(#gh)" stroke-width="1.5" opacity=".4"/>
  <line x1="60" y1="58" x2="40" y2="72" stroke="url(#gh)" stroke-width="1.5" opacity=".4"/>
  <!-- Hybrid nodes: half-rect half-circle -->
  <rect x="10" y="14" width="10" height="16" rx="2" fill="url(#gh)" fill-opacity=".2" stroke="url(#gh)" stroke-width="1.2"/>
  <path d="M20 14 A8 8 0 0 1 20 30" fill="url(#gh)" fill-opacity=".1" stroke="url(#gh)" stroke-width="1.2"/>
  <rect x="50" y="14" width="10" height="16" rx="2" fill="url(#gh)" fill-opacity=".2" stroke="url(#gh)" stroke-width="1.2"/>
  <path d="M60 14 A8 8 0 0 1 60 30" fill="url(#gh)" fill-opacity=".1" stroke="url(#gh)" stroke-width="1.2"/>
  <rect x="10" y="50" width="10" height="16" rx="2" fill="url(#gh)" fill-opacity=".2" stroke="url(#gh)" stroke-width="1.2"/>
  <path d="M20 50 A8 8 0 0 1 20 66" fill="url(#gh)" fill-opacity=".1" stroke="url(#gh)" stroke-width="1.2"/>
  <rect x="50" y="50" width="10" height="16" rx="2" fill="url(#gh)" fill-opacity=".2" stroke="url(#gh)" stroke-width="1.2"/>
  <path d="M60 50 A8 8 0 0 1 60 66" fill="url(#gh)" fill-opacity=".1" stroke="url(#gh)" stroke-width="1.2"/>
  <!-- Center hybrid node -->
  <rect x="30" y="64" width="10" height="16" rx="2" fill="url(#gh)" fill-opacity=".3" stroke="url(#gh)" stroke-width="1.2"/>
  <path d="M40 64 A8 8 0 0 1 40 80" fill="url(#gh)" fill-opacity=".15" stroke="url(#gh)" stroke-width="1.2"/>
</svg>
