<svg xmlns="http://www.w3.org/2000/svg" viewBox="0 0 80 80" fill="none">
  <defs>
    <linearGradient id="gfn" x1="0" y1="80" x2="80" y2="0" gradientUnits="userSpaceOnUse">
      <stop stop-color="#6366f1"/>
      <stop offset="1" stop-color="#8b5cf6"/>
    </linearGradient>
  </defs>
  <!-- Building base -->
  <rect x="18" y="24" width="44" height="44" rx="3" fill="url(#gfn)" opacity=".15" stroke="url(#gfn)" stroke-width="1.5"/>
  <!-- Columns -->
  <rect x="26" y="30" width="4" height="32" rx="1" fill="url(#gfn)" opacity=".35"/>
  <rect x="38" y="30" width="4" height="32" rx="1" fill="url(#gfn)" opacity=".35"/>
  <rect x="50" y="30" width="4" height="32" rx="1" fill="url(#gfn)" opacity=".35"/>
  <!-- Pediment -->
  <polygon points="16,26 40,12 64,26" fill="url(#gfn)" opacity=".25" stroke="url(#gfn)" stroke-width="1.5" stroke-linejoin="round"/>
  <!-- Dollar sign -->
  <circle cx="40" cy="44" r="8" fill="url(#gfn)" opacity=".2" stroke="url(#gfn)" stroke-width="1.5"/>
  <path d="M40 38v12M37 40.5c0-1.4 1.3-2.5 3-2.5s3 1.1 3 2.5-1.3 2.5-3 2.5-3 1.1-3 2.5 1.3 2.5 3 2.5" stroke="url(#gfn)" stroke-width="1.5" stroke-linecap="round"/>
  <!-- GPU chip indicator -->
  <rect x="54" y="12" width="16" height="12" rx="2" fill="url(#gfn)" opacity=".4" stroke="url(#gfn)" stroke-width="1"/>
  <line x1="57" y1="12" x2="57" y2="9" stroke="url(#gfn)" stroke-width="1" stroke-linecap="round"/>
  <line x1="62" y1="12" x2="62" y2="9" stroke="url(#gfn)" stroke-width="1" stroke-linecap="round"/>
  <line x1="67" y1="12" x2="67" y2="9" stroke="url(#gfn)" stroke-width="1" stroke-linecap="round"/>
  <text x="62" y="20.5" text-anchor="middle" font-size="7" font-family="monospace" fill="url(#gfn)" font-weight="bold">GPU</text>
</svg>
