<svg xmlns="http://www.w3.org/2000/svg" viewBox="0 0 80 80" fill="none">
  <defs>
    <linearGradient id="jc" x1="0" y1="0" x2="80" y2="80" gradientUnits="userSpaceOnUse">
      <stop stop-color="#60a5fa"/>
      <stop offset="1" stop-color="#6366f1"/>
    </linearGradient>
  </defs>
  <!-- Card background -->
  <rect x="8" y="8" width="64" height="64" rx="8" stroke="url(#jc)" stroke-width="1.5" fill="url(#jc)" fill-opacity=".06"/>
  <!-- Person head -->
  <circle cx="32" cy="28" r="9" fill="url(#jc)" opacity=".6"/>
  <!-- Person body -->
  <path d="M17 56C17 46 23 40 32 40C41 40 47 46 47 56" fill="url(#jc)" opacity=".3"/>
  <!-- Info lines (right side) -->
  <rect x="52" y="24" width="14" height="3" rx="1.5" fill="url(#jc)" opacity=".5"/>
  <rect x="52" y="33" width="10" height="3" rx="1.5" fill="url(#jc)" opacity=".35"/>
  <rect x="52" y="42" width="12" height="3" rx="1.5" fill="url(#jc)" opacity=".25"/>
  <!-- JSON brace accents -->
  <path d="M14 64C14 62 12 62 12 60C12 58 14 58 14 56" stroke="url(#jc)" stroke-width="1.5" fill="none" opacity=".3" stroke-linecap="round"/>
  <path d="M66 64C66 62 68 62 68 60C68 58 66 58 66 56" stroke="url(#jc)" stroke-width="1.5" fill="none" opacity=".3" stroke-linecap="round"/>
</svg>
