<svg xmlns="http://www.w3.org/2000/svg" viewBox="0 0 80 80" fill="none">
  <defs>
    <linearGradient id="ps" x1="0" y1="80" x2="80" y2="0" gradientUnits="userSpaceOnUse">
      <stop stop-color="#f59e0b"/>
      <stop offset="1" stop-color="#f97316"/>
    </linearGradient>
  </defs>
  <!-- Columnar blocks -->
  <rect x="6" y="32" width="14" height="40" rx="3" fill="url(#ps)" opacity=".65"/>
  <rect x="24" y="16" width="14" height="56" rx="3" fill="url(#ps)" opacity=".45"/>
  <rect x="42" y="24" width="14" height="48" rx="3" fill="url(#ps)" opacity=".75"/>
  <rect x="60" y="8" width="14" height="64" rx="3" fill="url(#ps)" opacity=".55"/>
  <!-- Column segment lines -->
  <line x1="8" y1="50" x2="18" y2="50" stroke="#0f172a" stroke-width="1" opacity=".3"/>
  <line x1="26" y1="42" x2="36" y2="42" stroke="#0f172a" stroke-width="1" opacity=".3"/>
  <line x1="26" y1="54" x2="36" y2="54" stroke="#0f172a" stroke-width="1" opacity=".3"/>
  <line x1="44" y1="46" x2="54" y2="46" stroke="#0f172a" stroke-width="1" opacity=".3"/>
  <line x1="62" y1="36" x2="72" y2="36" stroke="#0f172a" stroke-width="1" opacity=".3"/>
  <line x1="62" y1="52" x2="72" y2="52" stroke="#0f172a" stroke-width="1" opacity=".3"/>
  <!-- Chain connecting dots -->
  <circle cx="13" cy="28" r="2.5" fill="url(#ps)"/>
  <circle cx="31" cy="12" r="2.5" fill="url(#ps)"/>
  <circle cx="49" cy="20" r="2.5" fill="url(#ps)"/>
  <circle cx="67" cy="4" r="2.5" fill="url(#ps)"/>
  <path d="M13 28L31 12L49 20L67 4" stroke="url(#ps)" stroke-width="1.5" stroke-dasharray="3 2" opacity=".4" fill="none"/>
</svg>
